# xmcd
#
# Track frame offsets:
#	150
#	9592
#	25757
#	46340
#	59465
#	77725
#	96407
#	112910
#	129335
#	154577
#	169350
#	189177
#
# Disc length: 2746 seconds
#
# Revision: 1
# Processed by: cddbd v1.5.2PL0 Copyright (c) Steve Scherf et al.
# Submitted via: audiograbber 1.83.01
#
DISCID=8e0ab80c
DTITLE=Various Artist - Country Inspirations
DYEAR=2000
DGENRE=Country
TTITLE0=Dottie West - COUNTRY SUNSHINE
TTITLE1=Restless Heart - BIG DREAMS IN A SMALL TOWN
TTITLE2=Paul Overstreet - HEROES
TTITLE3=Waylon Jennings - LOVE OF THE COMMON PEOPLE
TTITLE4=Ronnie Milsap and Mike Reid - OLD FOLKS
TTITLE5=Alabama - ANGELS AMONG US
TTITLE6=Michael Johnson - GIVE ME WINGS
TTITLE7=Jo-el Sonnier - HAVE A LITTLE FAITH IN ME
TTITLE8=Ronnie Milsap - WE'RE HERE TO LOVE
TTITLE9=Keith Withley and Earl Thomas Conley - BROTHERLY LOVE
TTITLE10=Dolly Parton - TURN, TURN, TURN (TO EVERYTHING THERE IS A SEASON)
TTITLE11=Lorrie Morgan - MY FAVORITE THINGS
EXTD=
EXTT0=
EXTT1=
EXTT2=
EXTT3=
EXTT4=
EXTT5=
EXTT6=
EXTT7=
EXTT8=
EXTT9=
EXTT10=
EXTT11=
PLAYORDER=
